<mxfile host="app.diagrams.net" modified="2021-11-20T01:16:49.564Z" agent="5.0 (Windows NT 10.0; Win64; x64) AppleWebKit/537.36 (KHTML, like Gecko) Chrome/95.0.4638.69 Safari/537.36 Edg/95.0.1020.53" etag="AlGkLBaVQMBailcduKyk" version="15.7.0" type="github">
  <diagram id="nOqIaK_1nzCKAd382Ly7" name="Page-1">
    <mxGraphModel dx="2488" dy="1610" grid="1" gridSize="10" guides="1" tooltips="1" connect="1" arrows="1" fold="1" page="1" pageScale="1" pageWidth="1100" pageHeight="850" math="0" shadow="0">
      <root>
        <mxCell id="0" />
        <mxCell id="1" parent="0" />
        <mxCell id="yRy23KzbeU9Es9rmfsGQ-5" value="" style="edgeStyle=orthogonalEdgeStyle;rounded=0;orthogonalLoop=1;jettySize=auto;html=1;exitX=0;exitY=0.25;exitDx=0;exitDy=0;entryX=1;entryY=0.25;entryDx=0;entryDy=0;" edge="1" parent="1" source="yRy23KzbeU9Es9rmfsGQ-1" target="yRy23KzbeU9Es9rmfsGQ-2">
          <mxGeometry relative="1" as="geometry" />
        </mxCell>
        <mxCell id="yRy23KzbeU9Es9rmfsGQ-10" style="edgeStyle=orthogonalEdgeStyle;rounded=0;orthogonalLoop=1;jettySize=auto;html=1;exitX=0;exitY=0.5;exitDx=0;exitDy=0;entryX=1;entryY=0.5;entryDx=0;entryDy=0;" edge="1" parent="1" source="yRy23KzbeU9Es9rmfsGQ-1" target="yRy23KzbeU9Es9rmfsGQ-8">
          <mxGeometry relative="1" as="geometry" />
        </mxCell>
        <mxCell id="yRy23KzbeU9Es9rmfsGQ-14" style="edgeStyle=orthogonalEdgeStyle;rounded=0;orthogonalLoop=1;jettySize=auto;html=1;exitX=0;exitY=0.75;exitDx=0;exitDy=0;entryX=1;entryY=0.5;entryDx=0;entryDy=0;" edge="1" parent="1" source="yRy23KzbeU9Es9rmfsGQ-1" target="yRy23KzbeU9Es9rmfsGQ-12">
          <mxGeometry relative="1" as="geometry">
            <Array as="points">
              <mxPoint x="470" y="225" />
              <mxPoint x="470" y="390" />
            </Array>
          </mxGeometry>
        </mxCell>
        <mxCell id="yRy23KzbeU9Es9rmfsGQ-19" style="edgeStyle=orthogonalEdgeStyle;rounded=0;orthogonalLoop=1;jettySize=auto;html=1;exitX=0.25;exitY=0;exitDx=0;exitDy=0;entryX=1;entryY=0.5;entryDx=0;entryDy=0;" edge="1" parent="1" source="yRy23KzbeU9Es9rmfsGQ-1" target="yRy23KzbeU9Es9rmfsGQ-16">
          <mxGeometry relative="1" as="geometry" />
        </mxCell>
        <mxCell id="yRy23KzbeU9Es9rmfsGQ-23" style="edgeStyle=orthogonalEdgeStyle;rounded=0;orthogonalLoop=1;jettySize=auto;html=1;exitX=0.5;exitY=0;exitDx=0;exitDy=0;entryX=1;entryY=0.5;entryDx=0;entryDy=0;" edge="1" parent="1" source="yRy23KzbeU9Es9rmfsGQ-1" target="yRy23KzbeU9Es9rmfsGQ-20">
          <mxGeometry relative="1" as="geometry" />
        </mxCell>
        <mxCell id="yRy23KzbeU9Es9rmfsGQ-25" style="edgeStyle=orthogonalEdgeStyle;rounded=0;orthogonalLoop=1;jettySize=auto;html=1;exitX=0.75;exitY=0;exitDx=0;exitDy=0;entryX=1;entryY=0.5;entryDx=0;entryDy=0;" edge="1" parent="1" source="yRy23KzbeU9Es9rmfsGQ-1" target="yRy23KzbeU9Es9rmfsGQ-21">
          <mxGeometry relative="1" as="geometry" />
        </mxCell>
        <mxCell id="yRy23KzbeU9Es9rmfsGQ-35" value="Bio" style="edgeStyle=orthogonalEdgeStyle;rounded=0;orthogonalLoop=1;jettySize=auto;html=1;exitX=0.25;exitY=1;exitDx=0;exitDy=0;entryX=1;entryY=0.25;entryDx=0;entryDy=0;" edge="1" parent="1" source="yRy23KzbeU9Es9rmfsGQ-1" target="yRy23KzbeU9Es9rmfsGQ-29">
          <mxGeometry relative="1" as="geometry" />
        </mxCell>
        <mxCell id="yRy23KzbeU9Es9rmfsGQ-1" value="Speaker" style="rounded=0;whiteSpace=wrap;html=1;" vertex="1" parent="1">
          <mxGeometry x="490" y="180" width="120" height="60" as="geometry" />
        </mxCell>
        <mxCell id="yRy23KzbeU9Es9rmfsGQ-6" value="" style="edgeStyle=orthogonalEdgeStyle;rounded=0;orthogonalLoop=1;jettySize=auto;html=1;" edge="1" parent="1" source="yRy23KzbeU9Es9rmfsGQ-2" target="yRy23KzbeU9Es9rmfsGQ-3">
          <mxGeometry relative="1" as="geometry" />
        </mxCell>
        <mxCell id="yRy23KzbeU9Es9rmfsGQ-2" value="Speaker/Link" style="rounded=0;whiteSpace=wrap;html=1;" vertex="1" parent="1">
          <mxGeometry x="310" y="180" width="120" height="60" as="geometry" />
        </mxCell>
        <mxCell id="yRy23KzbeU9Es9rmfsGQ-7" value="" style="edgeStyle=orthogonalEdgeStyle;rounded=0;orthogonalLoop=1;jettySize=auto;html=1;" edge="1" parent="1" source="yRy23KzbeU9Es9rmfsGQ-3" target="yRy23KzbeU9Es9rmfsGQ-4">
          <mxGeometry relative="1" as="geometry" />
        </mxCell>
        <mxCell id="yRy23KzbeU9Es9rmfsGQ-3" value="Link" style="rounded=0;whiteSpace=wrap;html=1;" vertex="1" parent="1">
          <mxGeometry x="130" y="180" width="120" height="60" as="geometry" />
        </mxCell>
        <mxCell id="yRy23KzbeU9Es9rmfsGQ-4" value="Link Provider" style="rounded=0;whiteSpace=wrap;html=1;" vertex="1" parent="1">
          <mxGeometry x="-50" y="180" width="120" height="60" as="geometry" />
        </mxCell>
        <mxCell id="yRy23KzbeU9Es9rmfsGQ-11" value="" style="edgeStyle=orthogonalEdgeStyle;rounded=0;orthogonalLoop=1;jettySize=auto;html=1;" edge="1" parent="1" source="yRy23KzbeU9Es9rmfsGQ-8" target="yRy23KzbeU9Es9rmfsGQ-9">
          <mxGeometry relative="1" as="geometry" />
        </mxCell>
        <mxCell id="yRy23KzbeU9Es9rmfsGQ-8" value="Speaker/Tag" style="rounded=0;whiteSpace=wrap;html=1;" vertex="1" parent="1">
          <mxGeometry x="310" y="270" width="120" height="60" as="geometry" />
        </mxCell>
        <mxCell id="yRy23KzbeU9Es9rmfsGQ-9" value="Tag" style="rounded=0;whiteSpace=wrap;html=1;" vertex="1" parent="1">
          <mxGeometry x="130" y="270" width="120" height="60" as="geometry" />
        </mxCell>
        <mxCell id="yRy23KzbeU9Es9rmfsGQ-15" value="" style="edgeStyle=orthogonalEdgeStyle;rounded=0;orthogonalLoop=1;jettySize=auto;html=1;" edge="1" parent="1" source="yRy23KzbeU9Es9rmfsGQ-12" target="yRy23KzbeU9Es9rmfsGQ-13">
          <mxGeometry relative="1" as="geometry" />
        </mxCell>
        <mxCell id="yRy23KzbeU9Es9rmfsGQ-12" value="Speaker/Award" style="rounded=0;whiteSpace=wrap;html=1;" vertex="1" parent="1">
          <mxGeometry x="310" y="360" width="120" height="60" as="geometry" />
        </mxCell>
        <mxCell id="yRy23KzbeU9Es9rmfsGQ-13" value="Award" style="rounded=0;whiteSpace=wrap;html=1;" vertex="1" parent="1">
          <mxGeometry x="130" y="360" width="120" height="60" as="geometry" />
        </mxCell>
        <mxCell id="yRy23KzbeU9Es9rmfsGQ-18" value="" style="edgeStyle=orthogonalEdgeStyle;rounded=0;orthogonalLoop=1;jettySize=auto;html=1;" edge="1" parent="1" source="yRy23KzbeU9Es9rmfsGQ-16" target="yRy23KzbeU9Es9rmfsGQ-17">
          <mxGeometry relative="1" as="geometry" />
        </mxCell>
        <mxCell id="yRy23KzbeU9Es9rmfsGQ-16" value="Speaker Language" style="rounded=0;whiteSpace=wrap;html=1;" vertex="1" parent="1">
          <mxGeometry x="310" y="80" width="120" height="60" as="geometry" />
        </mxCell>
        <mxCell id="yRy23KzbeU9Es9rmfsGQ-17" value="Language" style="rounded=0;whiteSpace=wrap;html=1;" vertex="1" parent="1">
          <mxGeometry x="130" y="80" width="120" height="60" as="geometry" />
        </mxCell>
        <mxCell id="yRy23KzbeU9Es9rmfsGQ-27" value="" style="edgeStyle=orthogonalEdgeStyle;rounded=0;orthogonalLoop=1;jettySize=auto;html=1;" edge="1" parent="1" source="yRy23KzbeU9Es9rmfsGQ-20" target="yRy23KzbeU9Es9rmfsGQ-22">
          <mxGeometry relative="1" as="geometry" />
        </mxCell>
        <mxCell id="yRy23KzbeU9Es9rmfsGQ-20" value="Country" style="rounded=0;whiteSpace=wrap;html=1;" vertex="1" parent="1">
          <mxGeometry x="310" y="-20" width="120" height="60" as="geometry" />
        </mxCell>
        <mxCell id="yRy23KzbeU9Es9rmfsGQ-26" value="" style="edgeStyle=orthogonalEdgeStyle;rounded=0;orthogonalLoop=1;jettySize=auto;html=1;" edge="1" parent="1" source="yRy23KzbeU9Es9rmfsGQ-21" target="yRy23KzbeU9Es9rmfsGQ-20">
          <mxGeometry relative="1" as="geometry" />
        </mxCell>
        <mxCell id="yRy23KzbeU9Es9rmfsGQ-21" value="Country Division" style="rounded=0;whiteSpace=wrap;html=1;" vertex="1" parent="1">
          <mxGeometry x="310" y="-120" width="120" height="60" as="geometry" />
        </mxCell>
        <mxCell id="yRy23KzbeU9Es9rmfsGQ-28" style="edgeStyle=orthogonalEdgeStyle;rounded=0;orthogonalLoop=1;jettySize=auto;html=1;exitX=0.25;exitY=0;exitDx=0;exitDy=0;" edge="1" parent="1" source="yRy23KzbeU9Es9rmfsGQ-22">
          <mxGeometry relative="1" as="geometry">
            <mxPoint x="220" y="-20.206896551724185" as="targetPoint" />
          </mxGeometry>
        </mxCell>
        <mxCell id="yRy23KzbeU9Es9rmfsGQ-22" value="World Region" style="rounded=0;whiteSpace=wrap;html=1;" vertex="1" parent="1">
          <mxGeometry x="130" y="-20" width="120" height="60" as="geometry" />
        </mxCell>
        <mxCell id="yRy23KzbeU9Es9rmfsGQ-29" value="Content" style="rounded=0;whiteSpace=wrap;html=1;" vertex="1" parent="1">
          <mxGeometry x="310" y="450" width="120" height="60" as="geometry" />
        </mxCell>
        <mxCell id="yRy23KzbeU9Es9rmfsGQ-33" value="" style="edgeStyle=orthogonalEdgeStyle;rounded=0;orthogonalLoop=1;jettySize=auto;html=1;" edge="1" parent="1" source="yRy23KzbeU9Es9rmfsGQ-30" target="yRy23KzbeU9Es9rmfsGQ-31">
          <mxGeometry relative="1" as="geometry" />
        </mxCell>
        <mxCell id="yRy23KzbeU9Es9rmfsGQ-34" value="" style="edgeStyle=orthogonalEdgeStyle;rounded=0;orthogonalLoop=1;jettySize=auto;html=1;" edge="1" parent="1" source="yRy23KzbeU9Es9rmfsGQ-30" target="yRy23KzbeU9Es9rmfsGQ-29">
          <mxGeometry relative="1" as="geometry" />
        </mxCell>
        <mxCell id="yRy23KzbeU9Es9rmfsGQ-30" value="Content Copy" style="rounded=0;whiteSpace=wrap;html=1;" vertex="1" parent="1">
          <mxGeometry x="130" y="450" width="120" height="60" as="geometry" />
        </mxCell>
        <mxCell id="yRy23KzbeU9Es9rmfsGQ-31" value="Language/Culture" style="rounded=0;whiteSpace=wrap;html=1;" vertex="1" parent="1">
          <mxGeometry x="-50" y="450" width="120" height="60" as="geometry" />
        </mxCell>
        <mxCell id="yRy23KzbeU9Es9rmfsGQ-40" value="Abstract" style="edgeStyle=orthogonalEdgeStyle;rounded=0;orthogonalLoop=1;jettySize=auto;html=1;exitX=0;exitY=0.25;exitDx=0;exitDy=0;entryX=1;entryY=0.5;entryDx=0;entryDy=0;" edge="1" parent="1" source="yRy23KzbeU9Es9rmfsGQ-36" target="yRy23KzbeU9Es9rmfsGQ-29">
          <mxGeometry relative="1" as="geometry" />
        </mxCell>
        <mxCell id="yRy23KzbeU9Es9rmfsGQ-41" value="Short Abstract" style="edgeStyle=orthogonalEdgeStyle;rounded=0;orthogonalLoop=1;jettySize=auto;html=1;exitX=0;exitY=0.5;exitDx=0;exitDy=0;entryX=1;entryY=0.75;entryDx=0;entryDy=0;" edge="1" parent="1" source="yRy23KzbeU9Es9rmfsGQ-36" target="yRy23KzbeU9Es9rmfsGQ-29">
          <mxGeometry relative="1" as="geometry">
            <Array as="points">
              <mxPoint x="560" y="300" />
              <mxPoint x="560" y="495" />
            </Array>
          </mxGeometry>
        </mxCell>
        <mxCell id="yRy23KzbeU9Es9rmfsGQ-36" value="Abstract" style="rounded=0;whiteSpace=wrap;html=1;" vertex="1" parent="1">
          <mxGeometry x="650" y="270" width="120" height="60" as="geometry" />
        </mxCell>
        <mxCell id="yRy23KzbeU9Es9rmfsGQ-38" value="" style="edgeStyle=orthogonalEdgeStyle;rounded=0;orthogonalLoop=1;jettySize=auto;html=1;" edge="1" parent="1" source="yRy23KzbeU9Es9rmfsGQ-37" target="yRy23KzbeU9Es9rmfsGQ-1">
          <mxGeometry relative="1" as="geometry" />
        </mxCell>
        <mxCell id="yRy23KzbeU9Es9rmfsGQ-39" value="" style="edgeStyle=orthogonalEdgeStyle;rounded=0;orthogonalLoop=1;jettySize=auto;html=1;" edge="1" parent="1" source="yRy23KzbeU9Es9rmfsGQ-37" target="yRy23KzbeU9Es9rmfsGQ-36">
          <mxGeometry relative="1" as="geometry" />
        </mxCell>
        <mxCell id="yRy23KzbeU9Es9rmfsGQ-37" value="Abstract Speaker" style="rounded=0;whiteSpace=wrap;html=1;" vertex="1" parent="1">
          <mxGeometry x="650" y="180" width="120" height="60" as="geometry" />
        </mxCell>
      </root>
    </mxGraphModel>
  </diagram>
</mxfile>
